<?xml version="1.0" encoding="UTF-8"?>
<!DOCTYPE svg PUBLIC "-//W3C//DTD SVG 1.1//EN" "http://www.w3.org/Graphics/SVG/1.1/DTD/svg11.dtd">
<svg version="1.1" xmlns="http://www.w3.org/2000/svg" xmlns:xlink="http://www.w3.org/1999/xlink" x="0" y="0" width="695.88" height="180" viewBox="0, 0, 695.88, 180">
  <g id="Layer_1">
    <g>
      <g opacity="0">
        <path d="M306.199,49.784 L300.656,52.687 C297.576,54.447 294.892,55.524 292.603,55.922 C290.315,56.318 288.667,56.143 287.653,55.396 C286.643,54.645 285.826,53.768 285.213,52.756 C284.594,51.741 284.287,50.752 284.287,49.784 L284.155,48.466 C284.066,48.202 284.001,47.849 283.958,47.408 C283.913,46.966 284.001,46.021 284.222,44.57 C284.443,43.118 284.86,41.624 285.477,40.083 C286.09,38.542 287.237,36.65 288.908,34.406 C290.579,32.163 292.624,29.984 295.046,27.872 C297.466,25.759 300.81,23.426 305.076,20.876 C309.346,18.323 314.208,15.903 319.664,13.615 C326.967,10.712 333.657,9.457 339.728,9.853 C345.801,10.251 350.925,11.678 355.108,14.143 C359.286,16.608 361.991,19.601 363.225,23.121 C364.456,26.729 365.138,30.225 365.27,33.616 C365.402,37.003 365.205,39.951 364.675,42.458 C364.147,44.966 363.069,47.563 361.441,50.245 C359.814,52.931 358.383,55.043 357.152,56.582 C355.922,58.122 354.093,59.925 351.673,61.994 C349.255,64.063 347.494,65.47 346.394,66.218 C345.295,66.967 343.6,68.134 341.312,69.716 C338.41,71.917 336.429,73.722 335.371,75.129 C334.317,76.536 334.228,77.681 335.107,78.56 C335.988,79.441 337.308,80.099 339.068,80.54 C340.828,80.982 343.336,81.378 346.591,81.727 C352.223,82.257 357.504,82.477 362.433,82.389 C368.066,82.389 371.19,85.25 371.803,90.968 C372.508,97.306 371.871,101.639 369.891,103.972 C367.911,106.305 363.798,107.556 357.549,107.734 C343.557,108.085 323.8,107.953 298.28,107.339 C296.518,107.339 295.068,107.247 293.923,107.072 C292.78,106.898 291.548,106.545 290.226,106.017 C288.908,105.487 287.808,104.654 286.927,103.511 C286.047,102.366 285.432,100.87 285.079,99.022 C283.934,93.215 283.913,88.637 285.012,85.293 C286.114,81.951 288.6,79.133 292.471,76.844 C301.096,71.478 307.518,66.989 311.743,63.381 C313.591,61.885 314.604,59.749 314.781,56.98 C314.956,54.206 314.208,51.985 312.536,50.312 C310.862,48.641 308.753,48.466 306.199,49.784" fill="#000206"/>
      </g>
      <path d="M336.951,5.782 L339.522,5.863 C346.265,6.305 352.066,7.922 356.895,10.767 C361.931,13.739 365.359,17.531 366.983,22.167 C368.352,26.177 369.117,30.101 369.267,33.94 C369.413,37.681 369.19,40.993 368.579,43.885 C367.94,46.919 366.667,49.984 364.79,53.078 C363.071,55.914 361.536,58.181 360.167,59.892 C358.738,61.68 356.724,63.669 354.099,65.913 C351.582,68.067 349.706,69.567 348.427,70.438 C346.768,71.569 345.117,72.711 343.466,73.853 C342.248,74.751 341.101,75.734 339.977,76.744 C342.123,77.26 344.325,77.489 346.513,77.747 C351.983,78.261 357.097,78.475 361.932,78.389 C369.884,78.389 374.921,83.001 375.775,90.971 C376.605,98.427 375.805,103.87 372.822,107.384 C369.813,110.929 364.585,112.522 357.162,112.732 C343.09,113.085 323.272,112.953 297.672,112.338 L297.672,112.338 C296.024,112.357 294.38,112.229 292.747,112.021 C291.247,111.793 289.688,111.348 288.048,110.693 C285.981,109.862 284.231,108.533 282.861,106.755 C281.518,105.009 280.636,102.866 280.164,100.392 C278.883,93.895 278.858,88.584 280.238,84.385 C281.807,79.56 285.437,76.184 289.595,73.525 L289.593,73.523 C298.032,68.273 304.292,63.899 308.32,60.459 L308.412,60.383 C309.235,59.716 309.69,58.759 309.79,57.196 C309.887,55.658 309.567,54.708 308.858,53.998 L308.788,53.914 C308.426,53.936 308.086,54.129 307.766,54.282 L302.244,57.173 L302.243,57.172 C299.34,58.927 296.158,60.086 292.87,60.856 C289.492,61.441 286.69,61.143 284.467,59.507 C282.993,58.41 281.78,57.101 280.871,55.598 C279.94,54.133 279.45,52.452 279.32,50.731 L279.309,50.732 L279.206,49.7 C279.043,49.078 279.146,49.516 278.981,48.366 C278.883,47.409 278.992,46.241 279.273,44.394 C279.547,42.589 280.058,40.763 280.796,38.919 C281.575,36.961 282.906,34.76 284.799,32.217 C286.671,29.706 288.936,27.294 291.587,24.982 C294.236,22.669 297.792,20.189 302.266,17.514 C306.728,14.846 311.778,12.332 317.502,9.933 C322.053,8.135 326.785,6.746 331.653,6.129 C333.409,5.907 335.185,5.898 336.951,5.782 z M336.895,14.782 C331.346,14.788 326.052,16.343 320.904,18.265 C315.636,20.474 310.964,22.799 306.885,25.239 C302.834,27.66 299.699,29.847 297.504,31.763 C295.32,33.668 293.492,35.615 292.017,37.593 C290.554,39.559 289.6,41.136 289.155,42.255 C288.663,43.485 288.338,44.646 288.171,45.747 C288.072,46.394 288.006,46.911 287.971,47.285 C287.951,47.526 287.958,47.417 287.947,47.612 L288.082,48.014 L288.133,48.517 L288.264,49.836 L288.287,50.06 L288.287,50.284 C288.287,50.378 288.347,50.572 288.562,50.925 C289.246,51.825 288.878,51.436 289.641,52.113 C290.669,52.116 290.105,52.144 291.332,51.989 C293.044,51.691 295.262,50.8 297.924,49.28 L298.069,49.2 L303.612,46.298 L303.635,46.286 C307.826,44.122 312.056,44.474 315.22,47.632 C317.85,50.264 319.025,53.756 318.772,57.768 C318.577,61.544 316.943,64.788 314.162,67.299 L314.165,67.303 L314.078,67.374 L314.073,67.379 L314.073,67.379 C307.919,72.545 301.135,76.891 294.348,81.165 L294.262,81.217 C291.275,82.984 289.521,84.971 288.787,87.199 C287.967,89.692 287.986,93.537 288.999,98.678 C289.228,99.878 289.577,100.724 289.992,101.264 C290.383,101.771 290.831,102.112 291.395,102.338 C292.418,102.747 293.321,103.005 294.104,103.124 C295.012,103.263 296.249,103.34 297.78,103.34 L297.888,103.341 C323.354,103.953 343.038,104.084 356.922,103.736 C362.017,103.591 365.01,102.679 365.96,101.56 C366.937,100.409 367.411,97.185 366.828,91.948 C366.458,88.498 365.248,87.389 362.013,87.388 C356.911,87.48 351.463,87.252 345.612,86.701 C342.171,86.332 339.473,85.907 337.473,85.405 C334.981,84.78 332.947,83.764 331.425,82.242 C328.73,79.546 329.007,75.951 331.275,72.925 C332.639,71.11 334.888,69.061 338.093,66.63 L338.252,66.515 C340.568,64.914 342.26,63.749 343.362,62.999 C344.298,62.361 345.965,61.028 348.249,59.073 C350.479,57.167 352.114,55.553 353.138,54.271 C354.233,52.903 355.56,50.942 357.095,48.411 C358.47,46.144 359.354,44.015 359.772,42.027 C360.219,39.916 360.392,37.334 360.274,34.291 C360.159,31.35 359.561,28.283 358.478,25.109 C357.624,22.671 355.64,20.477 352.323,18.52 C348.789,16.437 344.345,15.198 338.935,14.844 L336.895,14.782 z M287.921,47.534 L287.946,47.609 L287.946,47.588 L287.921,47.534 z" fill="#9E324A"/>
      <path d="M33.977,105.584 L33.977,105.879 L55.164,105.879 C59.85,105.747 62.952,104.792 64.471,103.011 C65.987,101.228 66.482,97.959 65.954,93.208 C65.491,88.92 63.115,86.808 58.827,86.871 C54.076,86.871 50.145,86.674 47.047,86.278 C37.873,85.352 36.221,81.46 42.097,74.595 C47.377,68.393 53.218,62.846 59.619,57.963 C65.956,53.21 68.793,46.447 68.133,37.668 C67.804,33.311 65.56,31.036 61.4,30.837 C32.691,29.385 17.047,28.625 14.474,28.562 C12.298,28.495 10.661,28.444 9.572,28.412 C8.486,28.381 7.279,28.459 5.961,28.659 C4.641,28.857 3.731,29.007 3.235,29.104 C2.742,29.204 2.197,29.6 1.604,30.293 C1.009,30.983 0.647,31.546 0.515,31.974 C0.383,32.405 0.251,33.329 0.119,34.747 C-0.013,36.169 -0.047,37.387 0.02,38.409 C0.085,39.433 0.152,41.1 0.219,43.412 C0.416,48.031 1.125,50.952 2.346,52.171 C3.568,53.393 6.52,54.136 11.206,54.401 C19.523,54.795 25.33,55.289 28.633,55.884 C31.206,56.28 32.789,57.303 33.384,58.954 C33.977,60.604 33.451,62.45 31.8,64.498 C29.62,67.27 27.41,69.413 25.164,70.932 C20.086,74.3 13.814,78.192 6.357,82.614 C3.452,84.397 1.588,86.542 0.765,89.049 C-0.063,91.557 -0.013,94.99 0.911,99.345 C1.175,100.665 1.622,101.754 2.25,102.613 C2.874,103.472 3.7,104.099 4.724,104.496 C5.746,104.89 6.668,105.154 7.494,105.286 C8.319,105.418 9.426,105.516 10.81,105.584 z" fill="#00A3DA"/>
      <path d="M73.48,39.55 C73.48,41.728 73.249,51.15 72.786,67.814 C72.324,84.48 72.127,94.693 72.192,98.455 C72.259,101.16 72.869,102.943 74.024,103.801 C75.176,104.658 77.504,105.119 81.004,105.188 C82.984,105.253 87.109,105.369 93.378,105.535 C99.648,105.698 104.466,105.815 107.833,105.879 C115.292,106.08 119.943,105.418 121.792,103.9 C123.64,102.381 124.331,98.751 123.87,93.009 C123.606,88.851 120.869,86.641 115.654,86.377 C114.927,86.312 113.606,86.245 111.695,86.18 C109.779,86.113 108.146,86.014 106.794,85.882 C105.441,85.75 104.171,85.552 102.981,85.288 C101.529,85.024 100.127,84.496 98.774,83.706 C97.422,82.912 96.745,82.12 96.745,81.328 C96.745,80.138 97.026,79.28 97.586,78.754 C98.147,78.226 98.823,77.944 99.617,77.911 C100.408,77.879 101.529,77.73 102.981,77.466 C104.432,77.202 105.754,76.741 106.94,76.079 C111.695,72.384 112.288,68.491 108.725,64.4 C107.405,63.409 105.622,63.012 103.377,63.21 C101.133,63.409 99.715,62.98 99.12,61.924 C96.28,58.361 97.306,55.95 102.191,54.697 C103.178,54.5 104.697,54.333 106.745,54.201 C108.396,54.136 109.729,54.069 110.754,54.004 C111.774,53.937 112.832,53.823 113.921,53.657 C115.01,53.49 115.851,53.358 116.448,53.261 C117.041,53.161 117.667,52.964 118.327,52.666 C118.989,52.367 119.464,52.089 119.763,51.827 C120.061,51.563 120.374,51.148 120.703,50.588 C121.032,50.027 121.247,49.515 121.345,49.054 C121.445,48.593 121.528,47.915 121.595,47.025 C121.66,46.133 121.694,45.291 121.694,44.5 C121.694,43.706 121.66,42.686 121.595,41.431 L121.595,39.648 C121.331,36.875 120.522,34.978 119.169,33.955 C117.817,32.933 115.357,32.39 111.792,32.321 L83.675,32.027 C79.584,31.958 76.876,32.405 75.558,33.361 C74.24,34.32 73.545,36.38 73.48,39.55" fill="#00A3DA"/>
      <path d="M174.956,29.945 C166.638,29.352 153.307,29.055 134.96,29.055 C130.603,29.055 128.358,31.267 128.226,35.689 C128.029,43.674 127.962,48.492 128.029,50.141 L128.919,97.366 C128.986,99.675 129.35,101.524 130.01,102.909 C130.668,104.296 132.055,105.188 134.168,105.584 C142.548,107.168 147.102,103.736 147.828,95.286 C148.026,92.45 148.193,90.765 148.325,90.238 C148.455,89.777 148.719,89.15 149.115,88.358 C149.578,87.301 150.387,86.641 151.542,86.377 C152.698,86.113 153.738,86.343 154.66,87.068 C155.452,87.665 156.013,88.225 156.342,88.754 C157.203,90.074 158.223,92.087 159.413,94.792 C160.599,97.498 161.325,99.115 161.591,99.645 C163.504,103.405 166.541,105.188 170.698,104.991 L174.46,104.991 C176.309,104.991 177.562,104.956 178.22,104.889 C182.181,104.627 183.271,102.614 181.488,98.851 C180.96,97.796 180.204,96.277 179.213,94.297 C178.224,92.316 177.529,90.931 177.133,90.141 C175.285,86.377 174.543,83.686 174.907,82.069 C175.269,80.452 177.166,78.458 180.6,76.079 C186.737,71.856 189.609,66.346 189.213,59.547 C189.081,57.9 188.981,55.239 188.914,51.577 C188.849,47.917 188.717,45.128 188.52,43.212 C188.189,39.648 186.737,36.611 184.161,34.105 C181.588,31.596 178.519,30.209 174.956,29.945 M146.048,52.123 L146.048,51.232 C146.048,46.942 146.509,43.972 147.433,42.321 C148.356,40.671 150.139,39.713 152.781,39.451 C156.541,38.988 159.809,39.418 162.58,40.737 C165.352,42.059 167.099,44.039 167.828,46.678 C168.818,49.976 168.637,53.112 167.28,56.082 C165.927,59.052 163.736,61.199 160.699,62.517 C150.998,66.807 146.113,63.342 146.048,52.123" fill="#00A3DA"/>
      <path d="M210.298,105.781 C212.61,106.045 220.052,106.045 232.623,105.781 C245.198,105.517 254.091,105.119 259.305,104.591 C263.794,104.065 267.622,102.233 270.789,99.1 C273.956,95.963 275.77,92.185 276.234,87.764 C276.96,81.163 277.39,72.187 277.519,60.835 C277.519,56.082 277.092,51.035 276.234,45.687 C275.573,41.992 274.023,38.905 271.581,36.429 C269.138,33.955 265.873,32.783 261.781,32.915 C259.732,32.984 255.756,33.065 249.851,33.164 C243.945,33.262 239.373,33.443 236.137,33.709 C225.776,34.501 217.062,36.282 210,39.055 C204.524,41.232 200.829,44.632 198.914,49.251 C192.314,64.432 191.388,80.536 196.143,97.563 C196.407,98.621 196.982,99.643 197.874,100.631 C198.765,101.623 199.706,102.383 200.695,102.909 C203.732,104.494 206.935,105.452 210.298,105.781 M229.408,80.735 C225.38,80.339 222.278,79.874 220.101,79.348 C219.307,79.149 218.502,78.705 217.676,78.011 C216.851,77.318 216.337,76.609 216.14,75.882 C214.096,69.151 214.787,63.409 218.218,58.656 C221.188,54.5 226.306,52.221 233.564,51.827 C235.215,51.76 240.098,51.892 248.218,52.221 C251.45,52.485 253.134,53.97 253.266,56.676 C253.528,64.664 253.431,70.075 252.968,72.913 C252.242,77.005 249.141,79.284 243.664,79.745 C243.333,79.81 238.579,80.138 229.408,80.735" fill="#00A3DA"/>
      <path d="M447.395,72.32 L447.197,72.32 L447.197,63.21 L447.297,53.903 C447.297,47.702 447.263,44.598 447.197,44.598 C447.197,42.486 446.635,41.019 445.512,40.193 C444.391,39.368 442.577,39.021 440.068,39.154 C437.759,39.021 435.646,39.086 433.733,39.352 C431.819,39.616 430.432,39.831 429.573,39.995 C428.716,40.158 427.745,40.556 426.656,41.184 C425.565,41.809 424.657,42.652 423.932,43.707 C423.536,44.236 422.035,46.546 419.427,50.637 C416.821,54.73 414.922,57.535 413.734,59.052 C413.208,59.714 412.614,60.076 411.952,60.141 C411.292,60.208 410.634,59.978 409.974,59.448 C409.312,58.92 408.654,58.311 407.993,57.616 C407.332,56.925 406.689,56.099 406.062,55.142 C405.434,54.185 404.906,53.328 404.479,52.568 C404.049,51.809 403.637,51.067 403.239,50.342 C401.195,45.522 398.802,42.437 396.062,41.084 C393.324,39.731 389.544,39.285 384.726,39.748 C381.361,40.144 379.579,41.826 379.38,44.795 C379.183,47.239 379.017,55.372 378.885,69.198 C378.753,83.028 378.753,93.44 378.885,100.434 C378.885,103.669 380.536,105.286 383.835,105.286 L393.339,105.286 C396.308,105.154 398.323,104.561 399.381,103.503 C400.436,102.448 400.964,100.468 400.964,97.563 C400.964,93.208 401.226,89.347 401.754,85.98 C401.823,85.386 402.117,84.956 402.646,84.696 C403.175,84.43 403.704,84.43 404.23,84.696 C404.429,84.759 404.959,85.289 405.816,86.278 C406.673,87.269 407.664,88.175 408.784,89 C409.905,89.825 410.963,90.204 411.952,90.141 C413.34,90.072 415.005,88.886 416.951,86.575 C418.899,84.265 419.937,83.077 420.071,83.01 C420.731,82.616 421.389,82.583 422.05,82.912 C422.711,83.241 423.108,83.77 423.24,84.495 C424.162,90.304 424.56,94.596 424.426,97.366 C424.426,100.996 424.938,103.34 425.961,104.394 C426.985,105.452 429.244,105.979 432.74,105.979 C434.393,105.979 436.867,105.848 440.169,105.584 C443.139,105.255 445.067,104.628 445.959,103.703 C446.85,102.777 447.329,100.831 447.395,97.862 z" fill="#00A3DA"/>
      <path d="M480.144,36.678 C473.939,37.008 468.759,37.337 464.601,37.668 C461.499,37.932 459.338,38.659 458.117,39.845 C456.897,41.035 456.119,43.178 455.79,46.28 C455.658,47.47 455.495,49.069 455.294,51.083 C455.097,53.096 454.916,54.945 454.75,56.627 C454.585,58.309 454.437,59.877 454.305,61.331 C452.985,78.885 452.06,92.087 451.532,100.929 C451.467,101.723 451.829,102.432 452.623,103.059 C453.413,103.683 454.305,104.065 455.294,104.197 C455.824,104.262 456.614,104.345 457.671,104.447 C458.729,104.544 459.503,104.609 459.996,104.644 C460.49,104.674 461.121,104.693 461.881,104.693 C462.637,104.693 463.216,104.626 463.612,104.494 C464.008,104.363 464.454,104.163 464.948,103.899 C465.444,103.634 465.822,103.257 466.088,102.763 C466.352,102.267 466.581,101.654 466.778,100.929 C467.636,97.565 469.683,95.847 472.919,95.782 C475.228,95.782 476.943,95.715 478.066,95.583 C482.554,95.254 485.193,97.102 485.985,101.13 C486.513,103.703 488.26,105.056 491.232,105.188 C491.892,105.188 492.916,105.237 494.303,105.335 C495.686,105.434 496.744,105.483 497.47,105.483 C499.649,105.552 501.184,105.188 502.074,104.394 C502.964,103.604 503.443,102.119 503.508,99.941 C503.64,98.487 503.64,97.071 503.508,95.684 C501.989,75.157 500.835,60.307 500.043,51.132 C499.978,48.888 499.582,46.117 498.857,42.818 C498.327,40.241 497.567,38.576 496.578,37.816 C495.589,37.056 493.775,36.678 491.132,36.678 z M482.62,78.854 C482.158,81.559 480.54,82.947 477.767,83.01 C475.854,83.077 474.371,82.681 473.313,81.823 C472.258,80.964 471.861,79.711 472.125,78.06 C472.654,73.703 473.908,68.062 475.888,61.132 C476.282,60.009 476.827,59.464 477.521,59.499 C478.214,59.531 478.825,60.041 479.353,61.032 C479.947,62.023 480.507,63.573 481.035,65.686 C481.236,67.006 481.531,68.854 481.927,71.231 C482.325,73.605 482.554,75.09 482.62,75.685 C482.819,76.676 482.819,77.731 482.62,78.854" fill="#00A3DA"/>
      <path d="M548.456,105.682 C550.37,105.879 553.587,105.979 558.107,105.979 C562.63,105.979 565.023,105.946 565.285,105.879 C567.2,105.55 568.256,105.221 568.453,104.89 C568.783,103.836 568.553,102.646 567.759,101.326 C564.592,95.65 561.029,89.577 557.069,83.11 C555.417,80.27 555.452,77.467 557.166,74.693 C560.136,69.812 561.821,67.006 562.216,66.278 C567.891,55.985 572.085,48.23 574.791,43.016 C575.914,41.231 576.243,40.01 575.78,39.35 C575.252,38.56 573.964,38.099 571.919,37.965 C570.994,37.965 569.063,38.046 566.128,38.213 C563.191,38.379 560.964,38.393 559.445,38.261 C556.143,37.997 553.305,39.055 550.929,41.432 C547.367,44.995 542.978,49.152 537.762,53.904 C535.455,56.018 534.002,55.522 533.405,52.421 C533.277,51.692 533.208,50.603 533.208,49.152 C533.145,48.295 533.062,47.074 532.961,45.49 C532.861,43.904 532.763,42.47 532.666,41.182 C532.566,39.895 532.449,38.692 532.319,37.569 C532.053,35.854 531.559,34.682 530.832,34.057 C530.107,33.429 528.886,33.147 527.17,33.214 C525.652,33.277 523.373,33.378 520.339,33.51 C517.3,33.642 515.027,33.709 513.508,33.709 C510.605,33.709 509.12,35.028 509.052,37.668 C509.052,38.988 509.021,40.884 508.954,43.363 C508.889,45.836 508.84,48.078 508.806,50.093 C508.773,52.106 508.757,54.003 508.757,55.786 C508.889,60.866 509.086,68.473 509.35,78.605 C509.614,88.734 509.78,96.31 509.845,101.326 C509.911,103.966 511.263,105.286 513.904,105.286 L528.161,104.991 C529.743,105.055 530.852,104.809 531.476,104.246 C532.103,103.686 532.449,102.646 532.517,101.128 C532.517,100.403 532.449,99.313 532.319,97.86 C532.185,96.41 532.152,95.321 532.219,94.596 L532.219,94.493 C532.284,93.636 532.747,93.06 533.606,92.762 C534.463,92.464 535.191,92.646 535.784,93.306 L535.881,93.406 C536.343,93.999 537.384,95.419 539.001,97.663 C540.62,99.908 541.955,101.557 543.009,102.613 C544.595,104.462 546.409,105.483 548.456,105.682" fill="#00A3DA"/>
      <path d="M580.125,39.55 C580.125,41.728 579.895,51.15 579.432,67.814 C578.971,84.48 578.772,94.693 578.839,98.455 C578.904,101.162 579.516,102.943 580.669,103.801 C581.825,104.658 584.153,105.119 587.649,105.188 C589.631,105.253 593.754,105.369 600.024,105.535 C606.297,105.698 611.115,105.815 614.48,105.879 C621.937,106.08 626.592,105.418 628.437,103.9 C630.287,102.383 630.98,98.751 630.518,93.009 C630.254,88.851 627.514,86.641 622.3,86.377 C621.573,86.312 620.255,86.245 618.34,86.18 C616.426,86.113 614.791,86.014 613.44,85.882 C612.088,85.75 610.816,85.552 609.628,85.288 C608.177,85.024 606.772,84.496 605.419,83.706 C604.067,82.912 603.39,82.12 603.39,81.328 C603.39,80.138 603.671,79.28 604.233,78.754 C604.794,78.226 605.47,77.944 606.262,77.911 C607.056,77.879 608.177,77.73 609.628,77.466 C611.08,77.202 612.399,76.741 613.589,76.079 C618.34,72.384 618.933,68.491 615.372,64.4 C614.05,63.409 612.27,63.012 610.026,63.21 C607.781,63.409 606.36,62.98 605.767,61.924 C602.929,58.361 603.953,55.95 608.836,54.697 C609.825,54.5 611.344,54.333 613.393,54.201 C615.041,54.136 616.377,54.069 617.399,54.004 C618.423,53.937 619.479,53.823 620.568,53.657 C621.657,53.49 622.499,53.358 623.093,53.261 C623.686,53.161 624.313,52.964 624.973,52.666 C625.634,52.367 626.113,52.089 626.409,51.827 C626.706,51.563 627.019,51.148 627.348,50.588 C627.679,50.027 627.892,49.515 627.994,49.054 C628.091,48.593 628.175,47.915 628.24,47.025 C628.308,46.133 628.341,45.291 628.341,44.5 C628.341,43.706 628.308,42.686 628.24,41.431 L628.24,39.648 C627.976,36.875 627.167,34.978 625.814,33.955 C624.462,32.933 622.004,32.39 618.441,32.321 L590.323,32.027 C586.231,31.958 583.525,32.405 582.205,33.361 C580.885,34.32 580.192,36.38 580.125,39.55" fill="#00A3DA"/>
      <path d="M681.601,29.945 C673.287,29.352 659.954,29.055 641.605,29.055 C637.25,29.055 635.003,31.267 634.873,35.689 C634.674,43.674 634.611,48.492 634.674,50.141 L635.566,97.366 C635.631,99.675 635.996,101.526 636.655,102.909 C637.317,104.296 638.702,105.188 640.813,105.584 C649.197,107.168 653.751,103.736 654.476,95.286 C654.675,92.45 654.84,90.765 654.97,90.238 C655.104,89.777 655.368,89.15 655.764,88.358 C656.225,87.301 657.033,86.641 658.189,86.377 C659.343,86.113 660.383,86.343 661.307,87.068 C662.101,87.665 662.66,88.225 662.989,88.754 C663.848,90.074 664.872,92.087 666.058,94.792 C667.248,97.498 667.973,99.115 668.237,99.645 C670.151,103.405 673.187,105.188 677.345,104.991 L681.109,104.991 C682.957,104.991 684.21,104.956 684.869,104.889 C688.83,104.627 689.918,102.614 688.137,98.851 C687.609,97.796 686.849,96.277 685.858,94.297 C684.869,92.316 684.176,90.931 683.78,90.141 C681.932,86.377 681.188,83.686 681.554,82.069 C681.917,80.454 683.814,78.458 687.245,76.079 C693.385,71.856 696.254,66.346 695.858,59.547 C695.726,57.9 695.626,55.239 695.563,51.577 C695.494,47.917 695.362,45.128 695.165,43.212 C694.836,39.648 693.383,36.611 690.808,34.105 C688.235,31.596 685.167,30.209 681.601,29.945 M652.693,52.123 L652.693,51.232 C652.693,46.942 653.156,43.972 654.08,42.321 C655.004,40.671 656.787,39.713 659.426,39.451 C663.19,38.988 666.454,39.418 669.228,40.737 C671.997,42.059 673.748,44.039 674.473,46.678 C675.463,49.978 675.282,53.112 673.929,56.082 C672.576,59.052 670.381,61.199 667.346,62.517 C657.643,66.807 652.76,63.342 652.693,52.123" fill="#00A3DA"/>
      <path d="M0.47,132.218 L695.398,132.218 L695.398,124.242 L0.47,124.242 z" fill="#9E324A"/>
      <path d="M674.51,9.911 Q673.934,9.443 673.358,9.218 Q672.782,8.993 672.242,8.993 Q671.558,8.993 671.126,9.317 Q670.694,9.641 670.694,10.163 Q670.694,10.523 670.91,10.757 Q671.126,10.991 671.477,11.162 Q671.828,11.333 672.269,11.459 Q672.71,11.585 673.142,11.729 Q674.87,12.305 675.671,13.268 Q676.472,14.231 676.472,15.779 Q676.472,16.823 676.121,17.669 Q675.77,18.515 675.095,19.118 Q674.42,19.721 673.439,20.054 Q672.458,20.387 671.216,20.387 Q668.642,20.387 666.446,18.857 L667.958,16.013 Q668.75,16.715 669.524,17.057 Q670.298,17.399 671.054,17.399 Q671.918,17.399 672.341,17.003 Q672.764,16.607 672.764,16.103 Q672.764,15.797 672.656,15.572 Q672.548,15.347 672.296,15.158 Q672.044,14.969 671.639,14.807 Q671.234,14.645 670.658,14.447 Q669.974,14.231 669.317,13.97 Q668.66,13.709 668.147,13.277 Q667.634,12.845 667.319,12.188 Q667.004,11.531 667.004,10.523 Q667.004,9.515 667.337,8.696 Q667.67,7.877 668.273,7.292 Q668.876,6.707 669.749,6.383 Q670.622,6.059 671.702,6.059 Q672.71,6.059 673.808,6.338 Q674.906,6.617 675.914,7.157 z" fill="#686C6D"/>
      <path d="M678.074,20.009 L680.378,6.437 L683.87,6.437 L686.588,13.673 L689.288,6.437 L692.78,6.437 L695.084,20.009 L691.574,20.009 L690.404,12.197 L687.2,20.009 L685.796,20.009 L682.754,12.197 L681.584,20.009 z" fill="#686C6D"/>
    </g>
    <g>
      <path d="M161.598,156.324 Q161.598,157.116 161.882,157.796 Q162.167,158.477 162.658,158.983 Q163.149,159.49 163.829,159.775 Q164.51,160.06 165.301,160.06 Q166.061,160.06 166.741,159.775 Q167.422,159.49 167.913,158.983 Q168.403,158.477 168.704,157.812 Q169.005,157.147 169.005,156.388 Q169.005,155.628 168.704,154.947 Q168.403,154.267 167.913,153.76 Q167.422,153.254 166.741,152.969 Q166.061,152.684 165.301,152.684 Q164.541,152.684 163.861,152.969 Q163.18,153.254 162.69,153.76 Q162.199,154.267 161.898,154.916 Q161.598,155.565 161.598,156.324 z M168.815,138.218 L174.576,138.218 L174.576,164.491 L168.815,164.491 L168.815,162.687 Q166.979,164.998 163.845,164.998 Q162.072,164.998 160.585,164.333 Q159.097,163.668 157.989,162.497 Q156.881,161.326 156.264,159.743 Q155.646,158.16 155.646,156.324 Q155.646,154.583 156.232,153.016 Q156.818,151.45 157.894,150.278 Q158.97,149.107 160.474,148.427 Q161.977,147.746 163.782,147.746 Q166.82,147.746 168.815,149.867 z" fill="#686C6D"/>
      <path d="M190.34,154.014 Q190.055,152.811 189.168,152.083 Q188.282,151.355 187.016,151.355 Q185.687,151.355 184.848,152.051 Q184.009,152.747 183.787,154.014 z M183.629,157.337 Q183.629,161.041 187.111,161.041 Q188.979,161.041 189.928,159.521 L195.468,159.521 Q193.79,165.093 187.079,165.093 Q185.022,165.093 183.312,164.475 Q181.603,163.858 180.384,162.719 Q179.166,161.579 178.501,159.996 Q177.836,158.414 177.836,156.451 Q177.836,154.425 178.469,152.795 Q179.102,151.165 180.274,150.025 Q181.445,148.886 183.107,148.268 Q184.769,147.651 186.858,147.651 Q188.915,147.651 190.561,148.268 Q192.207,148.886 193.347,150.057 Q194.486,151.228 195.088,152.922 Q195.689,154.615 195.689,156.736 L195.689,157.337 z" fill="#686C6D"/>
      <path d="M209.712,152.431 Q208.129,151.608 206.61,151.608 Q205.819,151.608 205.328,151.924 Q204.837,152.241 204.837,152.779 Q204.837,153.064 204.917,153.238 Q204.996,153.412 205.265,153.57 Q205.534,153.729 206.056,153.855 Q206.578,153.982 207.433,154.172 Q209.807,154.647 210.978,155.865 Q212.15,157.084 212.15,158.983 Q212.15,160.408 211.58,161.547 Q211.01,162.687 209.997,163.462 Q208.984,164.238 207.56,164.665 Q206.135,165.093 204.426,165.093 Q201.134,165.093 197.937,163.225 L200.026,159.173 Q202.432,160.819 204.584,160.819 Q205.376,160.819 205.882,160.471 Q206.388,160.123 206.388,159.585 Q206.388,159.268 206.309,159.062 Q206.23,158.857 205.977,158.683 Q205.724,158.509 205.233,158.366 Q204.742,158.224 203.951,158.065 Q201.292,157.527 200.232,156.467 Q199.171,155.406 199.171,153.539 Q199.171,152.178 199.678,151.086 Q200.184,149.993 201.134,149.234 Q202.083,148.474 203.429,148.063 Q204.774,147.651 206.42,147.651 Q209.111,147.651 211.643,148.696 z" fill="#686C6D"/>
      <path d="M220.791,148.252 L220.791,164.491 L215.062,164.491 L215.062,148.252 z M214.682,142.017 Q214.682,141.352 214.935,140.766 Q215.188,140.181 215.632,139.737 Q216.075,139.294 216.66,139.041 Q217.246,138.788 217.911,138.788 Q218.575,138.788 219.161,139.041 Q219.747,139.294 220.19,139.737 Q220.633,140.181 220.886,140.766 Q221.139,141.352 221.139,142.017 Q221.139,142.681 220.886,143.267 Q220.633,143.853 220.19,144.296 Q219.747,144.739 219.161,144.992 Q218.575,145.245 217.911,145.245 Q217.246,145.245 216.66,144.992 Q216.075,144.739 215.632,144.296 Q215.188,143.853 214.935,143.267 Q214.682,142.681 214.682,142.017 z" fill="#686C6D"/>
      <path d="M230.034,156.293 Q230.034,157.084 230.319,157.765 Q230.604,158.445 231.095,158.952 Q231.585,159.458 232.266,159.743 Q232.947,160.028 233.738,160.028 Q234.498,160.028 235.178,159.743 Q235.859,159.458 236.349,158.952 Q236.84,158.445 237.141,157.765 Q237.441,157.084 237.441,156.324 Q237.441,155.533 237.141,154.868 Q236.84,154.204 236.334,153.697 Q235.827,153.191 235.146,152.906 Q234.466,152.621 233.738,152.621 Q232.978,152.621 232.313,152.922 Q231.649,153.222 231.142,153.713 Q230.636,154.204 230.335,154.868 Q230.034,155.533 230.034,156.293 z M242.886,148.253 L242.886,163.383 Q242.886,164.744 242.728,165.821 Q242.569,166.897 242.285,167.72 Q241.905,168.765 241.098,169.667 Q240.29,170.569 239.151,171.234 Q238.011,171.898 236.571,172.278 Q235.131,172.658 233.453,172.658 Q231.554,172.658 229.971,172.183 Q228.388,171.708 227.201,170.87 Q226.014,170.031 225.255,168.907 Q224.495,167.783 224.242,166.454 L230.699,166.454 Q231.3,168.068 233.421,168.068 Q235.226,168.068 236.191,167.055 Q237.157,166.042 237.157,164.238 L237.157,162.687 Q236.523,163.288 235.938,163.684 Q235.352,164.08 234.751,164.333 Q234.149,164.586 233.485,164.697 Q232.82,164.808 232.029,164.808 Q230.288,164.808 228.831,164.206 Q227.375,163.605 226.315,162.529 Q225.255,161.452 224.669,159.949 Q224.083,158.445 224.083,156.609 Q224.083,154.742 224.716,153.143 Q225.349,151.545 226.442,150.358 Q227.534,149.17 229.037,148.49 Q230.541,147.809 232.313,147.809 Q235.194,147.809 237.157,149.962 L237.157,148.253 z" fill="#686C6D"/>
      <path d="M246.779,148.253 L252.509,148.253 L252.509,150.31 Q253.68,148.886 254.883,148.395 Q256.086,147.904 257.7,147.904 Q259.41,147.904 260.628,148.458 Q261.847,149.012 262.702,150.025 Q263.398,150.848 263.651,151.861 Q263.905,152.874 263.905,154.172 L263.905,164.491 L258.175,164.491 L258.175,156.293 Q258.175,155.09 258.001,154.346 Q257.827,153.602 257.384,153.159 Q257.004,152.779 256.529,152.621 Q256.054,152.463 255.516,152.463 Q254.06,152.463 253.284,153.333 Q252.509,154.204 252.509,155.818 L252.509,164.491 L246.779,164.491 z" fill="#686C6D"/>
    </g>
    <g>
      <path d="M314.323,148.252 L320.052,148.252 L320.052,150.247 Q322.395,147.999 325.307,147.999 Q328.916,147.999 330.815,151.038 Q332.746,147.968 336.323,147.968 Q337.462,147.968 338.475,148.3 Q339.488,148.632 340.216,149.345 Q340.944,150.057 341.372,151.196 Q341.799,152.336 341.799,153.95 L341.799,164.491 L336.07,164.491 L336.07,156.483 Q336.07,155.248 335.896,154.457 Q335.721,153.665 335.389,153.222 Q335.057,152.779 334.613,152.621 Q334.17,152.463 333.664,152.463 Q330.91,152.463 330.91,156.483 L330.91,164.491 L325.18,164.491 L325.18,156.483 Q325.18,155.248 325.022,154.441 Q324.864,153.634 324.563,153.159 Q324.263,152.684 323.788,152.51 Q323.313,152.336 322.68,152.336 Q322.142,152.336 321.667,152.494 Q321.192,152.652 320.828,153.111 Q320.464,153.57 320.258,154.378 Q320.052,155.185 320.052,156.483 L320.052,164.491 L314.323,164.491 z" fill="#686C6D"/>
      <path d="M351.042,156.324 Q351.042,157.116 351.327,157.796 Q351.612,158.477 352.103,158.983 Q352.593,159.49 353.274,159.775 Q353.954,160.06 354.746,160.06 Q355.505,160.06 356.186,159.775 Q356.867,159.49 357.357,158.983 Q357.848,158.477 358.149,157.812 Q358.449,157.147 358.449,156.388 Q358.449,155.628 358.149,154.947 Q357.848,154.267 357.357,153.76 Q356.867,153.254 356.186,152.969 Q355.505,152.684 354.746,152.684 Q353.954,152.684 353.274,152.969 Q352.593,153.254 352.103,153.76 Q351.612,154.267 351.327,154.916 Q351.042,155.565 351.042,156.324 z M358.259,148.253 L364.02,148.253 L364.02,164.491 L358.259,164.491 L358.259,162.687 Q356.423,164.998 353.29,164.998 Q351.517,164.998 350.029,164.349 Q348.541,163.7 347.434,162.529 Q346.326,161.357 345.708,159.775 Q345.091,158.192 345.091,156.324 Q345.091,154.583 345.693,153.016 Q346.294,151.45 347.37,150.278 Q348.446,149.107 349.934,148.427 Q351.422,147.746 353.226,147.746 Q356.265,147.746 358.259,149.867 z" fill="#686C6D"/>
      <path d="M373.643,138.218 L373.643,154.109 L379.658,148.253 L387.508,148.253 L379.373,155.755 L387.983,164.491 L379.943,164.491 L373.643,157.875 L373.643,164.491 L367.914,164.491 L367.914,138.218 z" fill="#686C6D"/>
      <path d="M400.898,154.014 Q400.613,152.811 399.727,152.083 Q398.84,151.355 397.574,151.355 Q396.245,151.355 395.406,152.051 Q394.567,152.747 394.345,154.014 z M394.187,157.337 Q394.187,161.041 397.669,161.041 Q399.537,161.041 400.486,159.521 L406.026,159.521 Q404.348,165.093 397.637,165.093 Q395.58,165.093 393.871,164.475 Q392.161,163.858 390.943,162.719 Q389.724,161.579 389.059,159.996 Q388.394,158.414 388.394,156.451 Q388.394,154.425 389.027,152.795 Q389.66,151.165 390.832,150.025 Q392.003,148.886 393.665,148.268 Q395.327,147.651 397.416,147.651 Q399.473,147.651 401.119,148.268 Q402.765,148.886 403.905,150.057 Q405.045,151.228 405.646,152.922 Q406.247,154.615 406.247,156.736 L406.247,157.337 z" fill="#686C6D"/>
    </g>
    <g>
      <path d="M460.762,138.218 L460.762,164.491 L455.033,164.491 L455.033,138.218 z" fill="#686C6D"/>
      <path d="M476.558,154.014 Q476.273,152.811 475.387,152.083 Q474.5,151.355 473.234,151.355 Q471.905,151.355 471.066,152.051 Q470.227,152.747 470.005,154.014 z M469.847,157.337 Q469.847,161.041 473.329,161.041 Q475.197,161.041 476.146,159.521 L481.686,159.521 Q480.008,165.093 473.297,165.093 Q471.24,165.093 469.531,164.475 Q467.821,163.858 466.602,162.719 Q465.384,161.579 464.719,159.996 Q464.054,158.414 464.054,156.451 Q464.054,154.425 464.687,152.795 Q465.32,151.165 466.492,150.025 Q467.663,148.886 469.325,148.268 Q470.987,147.651 473.076,147.651 Q475.133,147.651 476.779,148.268 Q478.425,148.886 479.565,150.057 Q480.704,151.228 481.306,152.922 Q481.907,154.615 481.907,156.736 L481.907,157.337 z" fill="#686C6D"/>
      <path d="M490.486,156.324 Q490.486,157.116 490.771,157.796 Q491.055,158.477 491.546,158.983 Q492.037,159.49 492.717,159.775 Q493.398,160.06 494.189,160.06 Q494.949,160.06 495.63,159.775 Q496.31,159.49 496.801,158.983 Q497.291,158.477 497.592,157.812 Q497.893,157.147 497.893,156.388 Q497.893,155.628 497.592,154.947 Q497.291,154.267 496.801,153.76 Q496.31,153.254 495.63,152.969 Q494.949,152.684 494.189,152.684 Q493.398,152.684 492.717,152.969 Q492.037,153.254 491.546,153.76 Q491.055,154.267 490.771,154.916 Q490.486,155.565 490.486,156.324 z M497.703,148.253 L503.464,148.253 L503.464,164.491 L497.703,164.491 L497.703,162.687 Q495.867,164.998 492.733,164.998 Q490.961,164.998 489.473,164.349 Q487.985,163.7 486.877,162.529 Q485.769,161.357 485.152,159.775 Q484.535,158.192 484.535,156.324 Q484.535,154.583 485.136,153.016 Q485.738,151.45 486.814,150.278 Q487.89,149.107 489.378,148.427 Q490.866,147.746 492.67,147.746 Q495.709,147.746 497.703,149.867 z" fill="#686C6D"/>
      <path d="M507.358,148.253 L513.087,148.253 L513.087,150.911 Q514.005,149.455 515.334,148.68 Q516.664,147.904 518.437,147.904 Q518.658,147.904 518.927,147.904 Q519.196,147.904 519.544,147.968 L519.544,153.444 Q518.405,152.874 517.075,152.874 Q515.081,152.874 514.084,154.061 Q513.087,155.248 513.087,157.527 L513.087,164.491 L507.358,164.491 z" fill="#686C6D"/>
      <path d="M522.109,148.253 L527.838,148.253 L527.838,150.31 Q529.009,148.886 530.212,148.395 Q531.415,147.904 533.029,147.904 Q534.739,147.904 535.957,148.458 Q537.176,149.012 538.031,150.025 Q538.727,150.848 538.98,151.861 Q539.234,152.874 539.234,154.172 L539.234,164.491 L533.504,164.491 L533.504,156.293 Q533.504,155.09 533.33,154.346 Q533.156,153.602 532.713,153.159 Q532.333,152.779 531.858,152.621 Q531.383,152.463 530.845,152.463 Q529.389,152.463 528.613,153.333 Q527.838,154.204 527.838,155.818 L527.838,164.491 L522.109,164.491 z" fill="#686C6D"/>
    </g>
    <path d="M289,163 C285.134,163 282,159.866 282,156 C282,152.134 285.134,149 289,149 C292.866,149 296,152.134 296,156 C296,159.866 292.866,163 289,163 z" fill="#B31E44"/>
    <path d="M429,162 C425.134,162 422,158.866 422,155 C422,151.134 425.134,148 429,148 C432.866,148 436,151.134 436,155 C436,158.866 432.866,162 429,162 z" fill="#B31E44"/>
  </g>
</svg>
